<mxfile host="app.diagrams.net" agent="Mozilla/5.0 (Macintosh; Intel Mac OS X 10_15_7) AppleWebKit/537.36 (KHTML, like Gecko) Chrome/137.0.0.0 Safari/537.36" version="26.0.4">
  <diagram name="第 1 页" id="jVx6ds1tYozffgaeyK4k">
    <mxGraphModel dx="3420" dy="2167" grid="1" gridSize="10" guides="1" tooltips="1" connect="1" arrows="1" fold="1" page="1" pageScale="1" pageWidth="827" pageHeight="1169" math="0" shadow="0">
      <root>
        <mxCell id="0" />
        <mxCell id="1" parent="0" />
        <mxCell id="JTcUMuY575CjnEHDwap5-83" value="" style="rounded=0;whiteSpace=wrap;html=1;fontFamily=Times New Roman;strokeWidth=2;dashed=1;glass=0;shadow=0;" parent="1" vertex="1">
          <mxGeometry x="54" y="70" width="1546" height="1090" as="geometry" />
        </mxCell>
        <mxCell id="jO49f_bSaMHnq8z-et_9-17" style="edgeStyle=orthogonalEdgeStyle;rounded=0;orthogonalLoop=1;jettySize=auto;html=1;exitX=0.5;exitY=0;exitDx=0;exitDy=0;entryX=0.5;entryY=1;entryDx=0;entryDy=0;" parent="1" source="5xaBMJCgVQoesxEyy8M3-41" target="5xaBMJCgVQoesxEyy8M3-49" edge="1">
          <mxGeometry relative="1" as="geometry">
            <Array as="points">
              <mxPoint x="825" y="1040" />
              <mxPoint x="165" y="1040" />
            </Array>
          </mxGeometry>
        </mxCell>
        <mxCell id="jO49f_bSaMHnq8z-et_9-18" style="edgeStyle=orthogonalEdgeStyle;rounded=0;orthogonalLoop=1;jettySize=auto;html=1;exitX=0.5;exitY=0;exitDx=0;exitDy=0;entryX=0.5;entryY=1;entryDx=0;entryDy=0;" parent="1" source="5xaBMJCgVQoesxEyy8M3-41" target="5xaBMJCgVQoesxEyy8M3-50" edge="1">
          <mxGeometry relative="1" as="geometry">
            <Array as="points">
              <mxPoint x="825" y="1040" />
              <mxPoint x="595" y="1040" />
            </Array>
          </mxGeometry>
        </mxCell>
        <mxCell id="5ybYp6yLcuB_kvrWJm-r-1" style="edgeStyle=orthogonalEdgeStyle;rounded=0;orthogonalLoop=1;jettySize=auto;html=1;exitX=0.5;exitY=0;exitDx=0;exitDy=0;entryX=0.5;entryY=1;entryDx=0;entryDy=0;" edge="1" parent="1" source="5xaBMJCgVQoesxEyy8M3-41" target="5xaBMJCgVQoesxEyy8M3-45">
          <mxGeometry relative="1" as="geometry">
            <Array as="points">
              <mxPoint x="825" y="1040" />
              <mxPoint x="1005" y="1040" />
            </Array>
          </mxGeometry>
        </mxCell>
        <mxCell id="5ybYp6yLcuB_kvrWJm-r-2" style="edgeStyle=orthogonalEdgeStyle;rounded=0;orthogonalLoop=1;jettySize=auto;html=1;exitX=0.5;exitY=0;exitDx=0;exitDy=0;entryX=0.5;entryY=1;entryDx=0;entryDy=0;" edge="1" parent="1" source="5xaBMJCgVQoesxEyy8M3-41" target="5xaBMJCgVQoesxEyy8M3-46">
          <mxGeometry relative="1" as="geometry">
            <Array as="points">
              <mxPoint x="825" y="1040" />
              <mxPoint x="1445" y="1040" />
            </Array>
          </mxGeometry>
        </mxCell>
        <mxCell id="5xaBMJCgVQoesxEyy8M3-41" value="&lt;span style=&quot;font-size: 30px;&quot;&gt;&lt;font style=&quot;font-size: 30px;&quot; face=&quot;Times New Roman&quot;&gt;X&lt;sup&gt;1&lt;/sup&gt;X&lt;sup&gt;2&lt;/sup&gt;X&lt;sup&gt;3&lt;/sup&gt;X&lt;sup&gt;4&lt;/sup&gt;&lt;/font&gt;&lt;/span&gt;" style="rounded=0;whiteSpace=wrap;html=1;fontStyle=0;labelBorderColor=#FFFFFF;dashed=1;strokeColor=#FFFFFF;labelBackgroundColor=none;" parent="1" vertex="1">
          <mxGeometry x="730" y="1084" width="190" height="50" as="geometry" />
        </mxCell>
        <mxCell id="5ybYp6yLcuB_kvrWJm-r-6" style="edgeStyle=orthogonalEdgeStyle;rounded=0;orthogonalLoop=1;jettySize=auto;html=1;exitX=0.5;exitY=0;exitDx=0;exitDy=0;entryX=0.5;entryY=1;entryDx=0;entryDy=0;" edge="1" parent="1" source="5xaBMJCgVQoesxEyy8M3-42" target="5xaBMJCgVQoesxEyy8M3-54">
          <mxGeometry relative="1" as="geometry" />
        </mxCell>
        <mxCell id="5xaBMJCgVQoesxEyy8M3-42" value="&lt;font style=&quot;font-size: 30px;&quot;&gt;word embedding&lt;/font&gt;" style="rounded=1;whiteSpace=wrap;html=1;fillColor=#afc8ea;fontSize=20;fontFamily=Times New Roman;" parent="1" vertex="1">
          <mxGeometry x="500" y="823" width="190" height="90" as="geometry" />
        </mxCell>
        <mxCell id="5ybYp6yLcuB_kvrWJm-r-5" style="edgeStyle=orthogonalEdgeStyle;rounded=0;orthogonalLoop=1;jettySize=auto;html=1;exitX=0.5;exitY=0;exitDx=0;exitDy=0;entryX=0.5;entryY=1;entryDx=0;entryDy=0;" edge="1" parent="1" source="5xaBMJCgVQoesxEyy8M3-44" target="5xaBMJCgVQoesxEyy8M3-52">
          <mxGeometry relative="1" as="geometry" />
        </mxCell>
        <mxCell id="5xaBMJCgVQoesxEyy8M3-44" value="&lt;font style=&quot;font-size: 30px;&quot;&gt;character embedding&lt;/font&gt;" style="rounded=1;whiteSpace=wrap;html=1;fillColor=#c8e3ca;fontSize=20;fontFamily=Times New Roman;" parent="1" vertex="1">
          <mxGeometry x="75" y="823" width="180" height="90" as="geometry" />
        </mxCell>
        <mxCell id="5ybYp6yLcuB_kvrWJm-r-7" style="edgeStyle=orthogonalEdgeStyle;rounded=0;orthogonalLoop=1;jettySize=auto;html=1;exitX=0.5;exitY=0;exitDx=0;exitDy=0;entryX=0.5;entryY=1;entryDx=0;entryDy=0;" edge="1" parent="1" source="5xaBMJCgVQoesxEyy8M3-45" target="5xaBMJCgVQoesxEyy8M3-55">
          <mxGeometry relative="1" as="geometry" />
        </mxCell>
        <mxCell id="5xaBMJCgVQoesxEyy8M3-45" value="&lt;font face=&quot;Times New Roman&quot; style=&quot;font-size: 30px;&quot;&gt;pinyin character embedding&lt;/font&gt;" style="rounded=1;whiteSpace=wrap;html=1;fillColor=#fff0e0;fontSize=20;" parent="1" vertex="1">
          <mxGeometry x="895" y="823" width="220" height="90" as="geometry" />
        </mxCell>
        <mxCell id="5ybYp6yLcuB_kvrWJm-r-8" style="edgeStyle=orthogonalEdgeStyle;rounded=0;orthogonalLoop=1;jettySize=auto;html=1;exitX=0.5;exitY=0;exitDx=0;exitDy=0;entryX=0.5;entryY=1;entryDx=0;entryDy=0;" edge="1" parent="1" source="5xaBMJCgVQoesxEyy8M3-46" target="5xaBMJCgVQoesxEyy8M3-56">
          <mxGeometry relative="1" as="geometry" />
        </mxCell>
        <mxCell id="5xaBMJCgVQoesxEyy8M3-46" value="&lt;font face=&quot;Times New Roman&quot; style=&quot;font-size: 30px;&quot;&gt;part-of-speech embedding&lt;/font&gt;" style="rounded=1;whiteSpace=wrap;html=1;fillColor=#ffd9d0;fontSize=20;" parent="1" vertex="1">
          <mxGeometry x="1340" y="823" width="210" height="90" as="geometry" />
        </mxCell>
        <mxCell id="5ybYp6yLcuB_kvrWJm-r-4" style="edgeStyle=orthogonalEdgeStyle;rounded=0;orthogonalLoop=1;jettySize=auto;html=1;exitX=0.5;exitY=0;exitDx=0;exitDy=0;entryX=0.5;entryY=1;entryDx=0;entryDy=0;" edge="1" parent="1" source="5xaBMJCgVQoesxEyy8M3-49" target="5xaBMJCgVQoesxEyy8M3-44">
          <mxGeometry relative="1" as="geometry" />
        </mxCell>
        <mxCell id="5xaBMJCgVQoesxEyy8M3-49" value="&lt;font style=&quot;font-size: 30px;&quot; face=&quot;Times New Roman&quot;&gt;C&lt;sup&gt;1&lt;/sup&gt;/C&lt;sup&gt;2&lt;/sup&gt;/C&lt;sup&gt;3&lt;/sup&gt;/C&lt;sup&gt;4&lt;/sup&gt;&lt;/font&gt;" style="rounded=0;whiteSpace=wrap;html=1;fontStyle=0;labelBorderColor=#FFFFFF;dashed=1;strokeColor=#FFFFFF;" parent="1" vertex="1">
          <mxGeometry x="70" y="944" width="190" height="50" as="geometry" />
        </mxCell>
        <mxCell id="5ybYp6yLcuB_kvrWJm-r-3" style="edgeStyle=orthogonalEdgeStyle;rounded=0;orthogonalLoop=1;jettySize=auto;html=1;exitX=0.5;exitY=0;exitDx=0;exitDy=0;entryX=0.5;entryY=1;entryDx=0;entryDy=0;" edge="1" parent="1" source="5xaBMJCgVQoesxEyy8M3-50" target="5xaBMJCgVQoesxEyy8M3-42">
          <mxGeometry relative="1" as="geometry" />
        </mxCell>
        <mxCell id="5xaBMJCgVQoesxEyy8M3-50" value="&lt;font face=&quot;Times New Roman&quot;&gt;&lt;span style=&quot;font-size: 30px;&quot;&gt;W&lt;sup&gt;1&lt;/sup&gt;/W&lt;sup&gt;2&lt;/sup&gt;W&lt;sup&gt;3&lt;/sup&gt;/W&lt;sup&gt;4&lt;/sup&gt;&lt;/span&gt;&lt;/font&gt;" style="rounded=0;whiteSpace=wrap;html=1;fontStyle=0;labelBorderColor=#FFFFFF;dashed=1;strokeColor=#FFFFFF;" parent="1" vertex="1">
          <mxGeometry x="500" y="953" width="190" height="31" as="geometry" />
        </mxCell>
        <mxCell id="5ybYp6yLcuB_kvrWJm-r-13" style="edgeStyle=orthogonalEdgeStyle;rounded=0;orthogonalLoop=1;jettySize=auto;html=1;exitX=0.5;exitY=0;exitDx=0;exitDy=0;" edge="1" parent="1" source="5xaBMJCgVQoesxEyy8M3-52" target="5xaBMJCgVQoesxEyy8M3-57">
          <mxGeometry relative="1" as="geometry" />
        </mxCell>
        <mxCell id="5xaBMJCgVQoesxEyy8M3-52" value="&lt;font style=&quot;font-size: 30px;&quot; face=&quot;Times New Roman&quot;&gt;BiLSTM&lt;/font&gt;" style="rounded=1;whiteSpace=wrap;html=1;fillColor=#D3C8D9;strokeColor=#9673a6;verticalAlign=middle;" parent="1" vertex="1">
          <mxGeometry x="75" y="692" width="180" height="80" as="geometry" />
        </mxCell>
        <mxCell id="5ybYp6yLcuB_kvrWJm-r-12" style="edgeStyle=orthogonalEdgeStyle;rounded=0;orthogonalLoop=1;jettySize=auto;html=1;exitX=0.5;exitY=0;exitDx=0;exitDy=0;entryX=0.5;entryY=1;entryDx=0;entryDy=0;" edge="1" parent="1" source="5xaBMJCgVQoesxEyy8M3-54" target="5xaBMJCgVQoesxEyy8M3-63">
          <mxGeometry relative="1" as="geometry" />
        </mxCell>
        <mxCell id="5xaBMJCgVQoesxEyy8M3-54" value="&lt;font style=&quot;font-size: 30px;&quot; face=&quot;Times New Roman&quot;&gt;BiLSTM&lt;/font&gt;" style="rounded=1;whiteSpace=wrap;html=1;fillColor=#D3C8D9;strokeColor=#9673a6;verticalAlign=middle;" parent="1" vertex="1">
          <mxGeometry x="505" y="692" width="180" height="80" as="geometry" />
        </mxCell>
        <mxCell id="5ybYp6yLcuB_kvrWJm-r-11" style="edgeStyle=orthogonalEdgeStyle;rounded=0;orthogonalLoop=1;jettySize=auto;html=1;exitX=0.5;exitY=0;exitDx=0;exitDy=0;entryX=0.5;entryY=1;entryDx=0;entryDy=0;" edge="1" parent="1" source="5xaBMJCgVQoesxEyy8M3-55" target="5xaBMJCgVQoesxEyy8M3-68">
          <mxGeometry relative="1" as="geometry" />
        </mxCell>
        <mxCell id="5xaBMJCgVQoesxEyy8M3-55" value="&lt;font style=&quot;font-size: 30px;&quot; face=&quot;Times New Roman&quot;&gt;BiLSTM&lt;/font&gt;" style="rounded=1;whiteSpace=wrap;html=1;fillColor=#D3C8D9;strokeColor=#9673a6;verticalAlign=middle;" parent="1" vertex="1">
          <mxGeometry x="895" y="692" width="220" height="80" as="geometry" />
        </mxCell>
        <mxCell id="5ybYp6yLcuB_kvrWJm-r-10" style="edgeStyle=orthogonalEdgeStyle;rounded=0;orthogonalLoop=1;jettySize=auto;html=1;exitX=0.5;exitY=0;exitDx=0;exitDy=0;entryX=0.5;entryY=1;entryDx=0;entryDy=0;" edge="1" parent="1" source="5xaBMJCgVQoesxEyy8M3-56" target="5xaBMJCgVQoesxEyy8M3-73">
          <mxGeometry relative="1" as="geometry" />
        </mxCell>
        <mxCell id="5xaBMJCgVQoesxEyy8M3-56" value="&lt;font style=&quot;font-size: 30px;&quot; face=&quot;Times New Roman&quot;&gt;BiLSTM&lt;/font&gt;" style="rounded=1;whiteSpace=wrap;html=1;fillColor=#D3C8D9;strokeColor=#9673a6;verticalAlign=middle;" parent="1" vertex="1">
          <mxGeometry x="1340" y="692" width="210" height="80" as="geometry" />
        </mxCell>
        <mxCell id="5xaBMJCgVQoesxEyy8M3-57" value="" style="rounded=1;whiteSpace=wrap;html=1;" parent="1" vertex="1">
          <mxGeometry x="80" y="600" width="170" height="50" as="geometry" />
        </mxCell>
        <mxCell id="5xaBMJCgVQoesxEyy8M3-58" value="" style="ellipse;whiteSpace=wrap;html=1;aspect=fixed;fillColor=#c8e3ca;" parent="1" vertex="1">
          <mxGeometry x="90" y="610" width="30" height="30" as="geometry" />
        </mxCell>
        <mxCell id="5xaBMJCgVQoesxEyy8M3-60" value="" style="ellipse;whiteSpace=wrap;html=1;aspect=fixed;fillColor=#c8e3ca;" parent="1" vertex="1">
          <mxGeometry x="130" y="610" width="30" height="30" as="geometry" />
        </mxCell>
        <mxCell id="5xaBMJCgVQoesxEyy8M3-61" value="" style="ellipse;whiteSpace=wrap;html=1;aspect=fixed;fillColor=#c8e3ca;" parent="1" vertex="1">
          <mxGeometry x="210" y="610" width="30" height="30" as="geometry" />
        </mxCell>
        <mxCell id="5xaBMJCgVQoesxEyy8M3-62" value="" style="ellipse;whiteSpace=wrap;html=1;aspect=fixed;fillColor=#c8e3ca;" parent="1" vertex="1">
          <mxGeometry x="170" y="610" width="30" height="30" as="geometry" />
        </mxCell>
        <mxCell id="jO49f_bSaMHnq8z-et_9-3" style="edgeStyle=orthogonalEdgeStyle;rounded=0;orthogonalLoop=1;jettySize=auto;html=1;exitX=0.5;exitY=0;exitDx=0;exitDy=0;entryX=0.5;entryY=1;entryDx=0;entryDy=0;" parent="1" source="5xaBMJCgVQoesxEyy8M3-63" target="5xaBMJCgVQoesxEyy8M3-98" edge="1">
          <mxGeometry relative="1" as="geometry">
            <Array as="points">
              <mxPoint x="595" y="570" />
              <mxPoint x="825" y="570" />
            </Array>
          </mxGeometry>
        </mxCell>
        <mxCell id="5xaBMJCgVQoesxEyy8M3-63" value="" style="rounded=1;whiteSpace=wrap;html=1;" parent="1" vertex="1">
          <mxGeometry x="510" y="600" width="170" height="50" as="geometry" />
        </mxCell>
        <mxCell id="5xaBMJCgVQoesxEyy8M3-64" value="" style="ellipse;whiteSpace=wrap;html=1;aspect=fixed;fillColor=#afc8ea;" parent="1" vertex="1">
          <mxGeometry x="520" y="610" width="30" height="30" as="geometry" />
        </mxCell>
        <mxCell id="5xaBMJCgVQoesxEyy8M3-65" value="" style="ellipse;whiteSpace=wrap;html=1;aspect=fixed;fillColor=#afc8ea;" parent="1" vertex="1">
          <mxGeometry x="580" y="610" width="30" height="30" as="geometry" />
        </mxCell>
        <mxCell id="5xaBMJCgVQoesxEyy8M3-66" value="" style="ellipse;whiteSpace=wrap;html=1;aspect=fixed;fillColor=#afc8ea;" parent="1" vertex="1">
          <mxGeometry x="640" y="610" width="30" height="30" as="geometry" />
        </mxCell>
        <mxCell id="jO49f_bSaMHnq8z-et_9-7" style="edgeStyle=orthogonalEdgeStyle;rounded=0;orthogonalLoop=1;jettySize=auto;html=1;exitX=0.5;exitY=0;exitDx=0;exitDy=0;endArrow=none;endFill=0;entryX=0.5;entryY=1;entryDx=0;entryDy=0;" parent="1" source="5xaBMJCgVQoesxEyy8M3-68" target="5xaBMJCgVQoesxEyy8M3-98" edge="1">
          <mxGeometry relative="1" as="geometry">
            <mxPoint x="750" y="450" as="targetPoint" />
            <Array as="points">
              <mxPoint x="1005" y="570" />
              <mxPoint x="825" y="570" />
            </Array>
          </mxGeometry>
        </mxCell>
        <mxCell id="5xaBMJCgVQoesxEyy8M3-68" value="" style="rounded=1;whiteSpace=wrap;html=1;" parent="1" vertex="1">
          <mxGeometry x="920" y="600" width="170" height="50" as="geometry" />
        </mxCell>
        <mxCell id="5xaBMJCgVQoesxEyy8M3-69" value="" style="ellipse;whiteSpace=wrap;html=1;aspect=fixed;fillColor=#fef1e0;" parent="1" vertex="1">
          <mxGeometry x="929" y="610" width="30" height="30" as="geometry" />
        </mxCell>
        <mxCell id="5xaBMJCgVQoesxEyy8M3-70" value="" style="ellipse;whiteSpace=wrap;html=1;aspect=fixed;fillColor=#fef1e0;" parent="1" vertex="1">
          <mxGeometry x="970" y="610" width="30" height="30" as="geometry" />
        </mxCell>
        <mxCell id="5xaBMJCgVQoesxEyy8M3-71" value="" style="ellipse;whiteSpace=wrap;html=1;aspect=fixed;fillColor=#fef1e0;" parent="1" vertex="1">
          <mxGeometry x="1050" y="610" width="30" height="30" as="geometry" />
        </mxCell>
        <mxCell id="5xaBMJCgVQoesxEyy8M3-72" value="" style="ellipse;whiteSpace=wrap;html=1;aspect=fixed;fillColor=#fef1e0;" parent="1" vertex="1">
          <mxGeometry x="1010" y="610" width="30" height="30" as="geometry" />
        </mxCell>
        <mxCell id="jO49f_bSaMHnq8z-et_9-8" style="edgeStyle=orthogonalEdgeStyle;rounded=0;orthogonalLoop=1;jettySize=auto;html=1;exitX=0.5;exitY=0;exitDx=0;exitDy=0;endArrow=none;endFill=0;entryX=0.5;entryY=1;entryDx=0;entryDy=0;" parent="1" source="5xaBMJCgVQoesxEyy8M3-73" target="5xaBMJCgVQoesxEyy8M3-98" edge="1">
          <mxGeometry relative="1" as="geometry">
            <mxPoint x="750" y="450" as="targetPoint" />
            <Array as="points">
              <mxPoint x="1445" y="570" />
              <mxPoint x="825" y="570" />
            </Array>
          </mxGeometry>
        </mxCell>
        <mxCell id="5xaBMJCgVQoesxEyy8M3-73" value="" style="rounded=1;whiteSpace=wrap;html=1;" parent="1" vertex="1">
          <mxGeometry x="1360" y="600" width="170" height="50" as="geometry" />
        </mxCell>
        <mxCell id="5xaBMJCgVQoesxEyy8M3-74" value="" style="ellipse;whiteSpace=wrap;html=1;aspect=fixed;fillColor=#ffd9d0;" parent="1" vertex="1">
          <mxGeometry x="1370" y="610" width="30" height="30" as="geometry" />
        </mxCell>
        <mxCell id="5xaBMJCgVQoesxEyy8M3-75" value="" style="ellipse;whiteSpace=wrap;html=1;aspect=fixed;fillColor=#ffd9d0;" parent="1" vertex="1">
          <mxGeometry x="1410" y="610" width="30" height="30" as="geometry" />
        </mxCell>
        <mxCell id="5xaBMJCgVQoesxEyy8M3-76" value="" style="ellipse;whiteSpace=wrap;html=1;aspect=fixed;fillColor=#ffd9d0;" parent="1" vertex="1">
          <mxGeometry x="1490" y="610" width="30" height="30" as="geometry" />
        </mxCell>
        <mxCell id="5xaBMJCgVQoesxEyy8M3-77" value="" style="ellipse;whiteSpace=wrap;html=1;aspect=fixed;fillColor=#ffd9d0;" parent="1" vertex="1">
          <mxGeometry x="1450" y="610" width="30" height="30" as="geometry" />
        </mxCell>
        <mxCell id="5xaBMJCgVQoesxEyy8M3-121" value="&lt;span style=&quot;background-color: initial;&quot;&gt;&lt;font face=&quot;Times New Roman&quot; style=&quot;font-size: 30px;&quot;&gt;Concatenation&lt;/font&gt;&lt;/span&gt;" style="text;html=1;align=center;verticalAlign=middle;resizable=0;points=[];autosize=1;strokeColor=none;fillColor=none;" parent="1" vertex="1">
          <mxGeometry x="827" y="500" width="200" height="50" as="geometry" />
        </mxCell>
        <mxCell id="jO49f_bSaMHnq8z-et_9-13" style="edgeStyle=orthogonalEdgeStyle;rounded=0;orthogonalLoop=1;jettySize=auto;html=1;exitX=0.5;exitY=0;exitDx=0;exitDy=0;entryX=0.5;entryY=1;entryDx=0;entryDy=0;" parent="1" source="5xaBMJCgVQoesxEyy8M3-131" target="5xaBMJCgVQoesxEyy8M3-234" edge="1">
          <mxGeometry relative="1" as="geometry" />
        </mxCell>
        <mxCell id="jO49f_bSaMHnq8z-et_9-15" style="edgeStyle=orthogonalEdgeStyle;rounded=0;orthogonalLoop=1;jettySize=auto;html=1;exitX=1;exitY=0.5;exitDx=0;exitDy=0;" parent="1" source="5xaBMJCgVQoesxEyy8M3-131" target="5xaBMJCgVQoesxEyy8M3-230" edge="1">
          <mxGeometry relative="1" as="geometry" />
        </mxCell>
        <mxCell id="5xaBMJCgVQoesxEyy8M3-131" value="&lt;font style=&quot;font-size: 30px;&quot; face=&quot;Times New Roman&quot;&gt;Global Textual Aggregator&lt;/font&gt;" style="rounded=1;whiteSpace=wrap;html=1;fillColor=#D3C8D9;strokeColor=#9673a6;" parent="1" vertex="1">
          <mxGeometry x="65" y="190" width="385" height="80" as="geometry" />
        </mxCell>
        <mxCell id="5xaBMJCgVQoesxEyy8M3-244" style="edgeStyle=orthogonalEdgeStyle;rounded=0;orthogonalLoop=1;jettySize=auto;html=1;exitX=1;exitY=0.5;exitDx=0;exitDy=0;entryX=0;entryY=0.5;entryDx=0;entryDy=0;" parent="1" source="5xaBMJCgVQoesxEyy8M3-132" target="5xaBMJCgVQoesxEyy8M3-236" edge="1">
          <mxGeometry relative="1" as="geometry">
            <Array as="points">
              <mxPoint x="1400" y="230" />
              <mxPoint x="1420" y="230" />
              <mxPoint x="1420" y="150" />
            </Array>
          </mxGeometry>
        </mxCell>
        <mxCell id="5xaBMJCgVQoesxEyy8M3-245" style="edgeStyle=orthogonalEdgeStyle;rounded=0;orthogonalLoop=1;jettySize=auto;html=1;exitX=1;exitY=0.5;exitDx=0;exitDy=0;entryX=0;entryY=0.5;entryDx=0;entryDy=0;" parent="1" source="5xaBMJCgVQoesxEyy8M3-132" target="5xaBMJCgVQoesxEyy8M3-237" edge="1">
          <mxGeometry relative="1" as="geometry">
            <Array as="points">
              <mxPoint x="1400" y="230" />
              <mxPoint x="1420" y="230" />
              <mxPoint x="1420" y="230" />
            </Array>
          </mxGeometry>
        </mxCell>
        <mxCell id="5xaBMJCgVQoesxEyy8M3-246" style="edgeStyle=orthogonalEdgeStyle;rounded=0;orthogonalLoop=1;jettySize=auto;html=1;exitX=1;exitY=0.5;exitDx=0;exitDy=0;entryX=0;entryY=0.5;entryDx=0;entryDy=0;" parent="1" source="5xaBMJCgVQoesxEyy8M3-132" target="5xaBMJCgVQoesxEyy8M3-238" edge="1">
          <mxGeometry relative="1" as="geometry">
            <Array as="points">
              <mxPoint x="1400" y="230" />
              <mxPoint x="1420" y="230" />
              <mxPoint x="1420" y="310" />
            </Array>
          </mxGeometry>
        </mxCell>
        <mxCell id="5xaBMJCgVQoesxEyy8M3-247" style="edgeStyle=orthogonalEdgeStyle;rounded=0;orthogonalLoop=1;jettySize=auto;html=1;exitX=1;exitY=0.5;exitDx=0;exitDy=0;entryX=0;entryY=0.5;entryDx=0;entryDy=0;" parent="1" source="5xaBMJCgVQoesxEyy8M3-132" target="5xaBMJCgVQoesxEyy8M3-239" edge="1">
          <mxGeometry relative="1" as="geometry">
            <Array as="points">
              <mxPoint x="1400" y="230" />
              <mxPoint x="1420" y="230" />
              <mxPoint x="1420" y="400" />
            </Array>
          </mxGeometry>
        </mxCell>
        <mxCell id="5xaBMJCgVQoesxEyy8M3-132" value="&lt;font style=&quot;font-size: 30px;&quot; face=&quot;Times New Roman&quot;&gt;Local Textual Aggregator&lt;/font&gt;" style="rounded=1;whiteSpace=wrap;html=1;fillColor=#D3C8D9;strokeColor=#9673a6;" parent="1" vertex="1">
          <mxGeometry x="1026" y="190" width="340" height="80" as="geometry" />
        </mxCell>
        <mxCell id="5xaBMJCgVQoesxEyy8M3-234" value="&lt;font style=&quot;font-size: 25px;&quot;&gt;Y&lt;sub&gt;intent&lt;/sub&gt;&lt;/font&gt;" style="rounded=1;whiteSpace=wrap;html=1;" parent="1" vertex="1">
          <mxGeometry x="197.5" y="90" width="120" height="60" as="geometry" />
        </mxCell>
        <mxCell id="5xaBMJCgVQoesxEyy8M3-235" value="" style="group" parent="1" vertex="1" connectable="0">
          <mxGeometry x="570" y="110" width="350" height="240" as="geometry" />
        </mxCell>
        <mxCell id="5xaBMJCgVQoesxEyy8M3-230" value="" style="rounded=1;whiteSpace=wrap;html=1;dashed=1;dashPattern=8 8;" parent="5xaBMJCgVQoesxEyy8M3-235" vertex="1">
          <mxGeometry width="350" height="240" as="geometry" />
        </mxCell>
        <mxCell id="5xaBMJCgVQoesxEyy8M3-229" value="" style="group" parent="5xaBMJCgVQoesxEyy8M3-235" vertex="1" connectable="0">
          <mxGeometry x="30" y="20" width="280" height="200" as="geometry" />
        </mxCell>
        <mxCell id="5xaBMJCgVQoesxEyy8M3-206" value="" style="group" parent="5xaBMJCgVQoesxEyy8M3-229" vertex="1" connectable="0">
          <mxGeometry x="240" width="50" height="200" as="geometry" />
        </mxCell>
        <mxCell id="5xaBMJCgVQoesxEyy8M3-136" value="" style="rounded=1;whiteSpace=wrap;html=1;direction=south;container=0;" parent="5xaBMJCgVQoesxEyy8M3-206" vertex="1">
          <mxGeometry width="50" height="200" as="geometry" />
        </mxCell>
        <mxCell id="5xaBMJCgVQoesxEyy8M3-141" value="" style="ellipse;whiteSpace=wrap;html=1;aspect=fixed;fillColor=#afc8ea;direction=south;container=0;" parent="5xaBMJCgVQoesxEyy8M3-206" vertex="1">
          <mxGeometry x="10" y="50" width="30" height="30" as="geometry" />
        </mxCell>
        <mxCell id="5xaBMJCgVQoesxEyy8M3-145" value="" style="ellipse;whiteSpace=wrap;html=1;aspect=fixed;fillColor=#fef1e0;direction=south;container=0;" parent="5xaBMJCgVQoesxEyy8M3-206" vertex="1">
          <mxGeometry x="10" y="85" width="30" height="30" as="geometry" />
        </mxCell>
        <mxCell id="5xaBMJCgVQoesxEyy8M3-149" value="" style="ellipse;whiteSpace=wrap;html=1;aspect=fixed;fillColor=#ffd9d0;direction=south;container=0;" parent="5xaBMJCgVQoesxEyy8M3-206" vertex="1">
          <mxGeometry x="10" y="120" width="30" height="30" as="geometry" />
        </mxCell>
        <mxCell id="5xaBMJCgVQoesxEyy8M3-137" value="" style="ellipse;whiteSpace=wrap;html=1;aspect=fixed;fillColor=#c8e3ca;direction=south;container=0;" parent="5xaBMJCgVQoesxEyy8M3-206" vertex="1">
          <mxGeometry x="10" y="10" width="30" height="30" as="geometry" />
        </mxCell>
        <mxCell id="5xaBMJCgVQoesxEyy8M3-134" value="" style="ellipse;whiteSpace=wrap;html=1;aspect=fixed;fillColor=#e1d5e7;strokeColor=#9673a6;container=0;" parent="5xaBMJCgVQoesxEyy8M3-206" vertex="1">
          <mxGeometry x="10" y="158" width="30" height="30" as="geometry" />
        </mxCell>
        <mxCell id="5xaBMJCgVQoesxEyy8M3-207" value="" style="group" parent="5xaBMJCgVQoesxEyy8M3-229" vertex="1" connectable="0">
          <mxGeometry width="50" height="200" as="geometry" />
        </mxCell>
        <mxCell id="5xaBMJCgVQoesxEyy8M3-208" value="" style="rounded=1;whiteSpace=wrap;html=1;direction=south;container=0;" parent="5xaBMJCgVQoesxEyy8M3-207" vertex="1">
          <mxGeometry width="50" height="200" as="geometry" />
        </mxCell>
        <mxCell id="5xaBMJCgVQoesxEyy8M3-209" value="" style="ellipse;whiteSpace=wrap;html=1;aspect=fixed;fillColor=#afc8ea;direction=south;container=0;" parent="5xaBMJCgVQoesxEyy8M3-207" vertex="1">
          <mxGeometry x="10" y="50" width="30" height="30" as="geometry" />
        </mxCell>
        <mxCell id="5xaBMJCgVQoesxEyy8M3-210" value="" style="ellipse;whiteSpace=wrap;html=1;aspect=fixed;fillColor=#fef1e0;direction=south;container=0;" parent="5xaBMJCgVQoesxEyy8M3-207" vertex="1">
          <mxGeometry x="10" y="85" width="30" height="30" as="geometry" />
        </mxCell>
        <mxCell id="5xaBMJCgVQoesxEyy8M3-211" value="" style="ellipse;whiteSpace=wrap;html=1;aspect=fixed;fillColor=#ffd9d0;direction=south;container=0;" parent="5xaBMJCgVQoesxEyy8M3-207" vertex="1">
          <mxGeometry x="10" y="120" width="30" height="30" as="geometry" />
        </mxCell>
        <mxCell id="5xaBMJCgVQoesxEyy8M3-212" value="" style="ellipse;whiteSpace=wrap;html=1;aspect=fixed;fillColor=#c8e3ca;direction=south;container=0;" parent="5xaBMJCgVQoesxEyy8M3-207" vertex="1">
          <mxGeometry x="10" y="10" width="30" height="30" as="geometry" />
        </mxCell>
        <mxCell id="5xaBMJCgVQoesxEyy8M3-213" value="" style="ellipse;whiteSpace=wrap;html=1;aspect=fixed;fillColor=#e1d5e7;strokeColor=#9673a6;container=0;" parent="5xaBMJCgVQoesxEyy8M3-207" vertex="1">
          <mxGeometry x="10" y="158" width="30" height="30" as="geometry" />
        </mxCell>
        <mxCell id="5xaBMJCgVQoesxEyy8M3-214" value="" style="group" parent="5xaBMJCgVQoesxEyy8M3-229" vertex="1" connectable="0">
          <mxGeometry x="80" width="50" height="200" as="geometry" />
        </mxCell>
        <mxCell id="5xaBMJCgVQoesxEyy8M3-215" value="" style="rounded=1;whiteSpace=wrap;html=1;direction=south;container=0;" parent="5xaBMJCgVQoesxEyy8M3-214" vertex="1">
          <mxGeometry width="50" height="200" as="geometry" />
        </mxCell>
        <mxCell id="5xaBMJCgVQoesxEyy8M3-216" value="" style="ellipse;whiteSpace=wrap;html=1;aspect=fixed;fillColor=#afc8ea;direction=south;container=0;" parent="5xaBMJCgVQoesxEyy8M3-214" vertex="1">
          <mxGeometry x="10" y="50" width="30" height="30" as="geometry" />
        </mxCell>
        <mxCell id="5xaBMJCgVQoesxEyy8M3-217" value="" style="ellipse;whiteSpace=wrap;html=1;aspect=fixed;fillColor=#fef1e0;direction=south;container=0;" parent="5xaBMJCgVQoesxEyy8M3-214" vertex="1">
          <mxGeometry x="10" y="85" width="30" height="30" as="geometry" />
        </mxCell>
        <mxCell id="5xaBMJCgVQoesxEyy8M3-218" value="" style="ellipse;whiteSpace=wrap;html=1;aspect=fixed;fillColor=#ffd9d0;direction=south;container=0;" parent="5xaBMJCgVQoesxEyy8M3-214" vertex="1">
          <mxGeometry x="10" y="120" width="30" height="30" as="geometry" />
        </mxCell>
        <mxCell id="5xaBMJCgVQoesxEyy8M3-219" value="" style="ellipse;whiteSpace=wrap;html=1;aspect=fixed;fillColor=#c8e3ca;direction=south;container=0;" parent="5xaBMJCgVQoesxEyy8M3-214" vertex="1">
          <mxGeometry x="10" y="10" width="30" height="30" as="geometry" />
        </mxCell>
        <mxCell id="5xaBMJCgVQoesxEyy8M3-220" value="" style="ellipse;whiteSpace=wrap;html=1;aspect=fixed;fillColor=#e1d5e7;strokeColor=#9673a6;container=0;" parent="5xaBMJCgVQoesxEyy8M3-214" vertex="1">
          <mxGeometry x="10" y="158" width="30" height="30" as="geometry" />
        </mxCell>
        <mxCell id="5xaBMJCgVQoesxEyy8M3-221" value="" style="group" parent="5xaBMJCgVQoesxEyy8M3-229" vertex="1" connectable="0">
          <mxGeometry x="160" width="50" height="200" as="geometry" />
        </mxCell>
        <mxCell id="5xaBMJCgVQoesxEyy8M3-222" value="" style="rounded=1;whiteSpace=wrap;html=1;direction=south;container=0;" parent="5xaBMJCgVQoesxEyy8M3-221" vertex="1">
          <mxGeometry width="50" height="200" as="geometry" />
        </mxCell>
        <mxCell id="5xaBMJCgVQoesxEyy8M3-223" value="" style="ellipse;whiteSpace=wrap;html=1;aspect=fixed;fillColor=#afc8ea;direction=south;container=0;" parent="5xaBMJCgVQoesxEyy8M3-221" vertex="1">
          <mxGeometry x="10" y="50" width="30" height="30" as="geometry" />
        </mxCell>
        <mxCell id="5xaBMJCgVQoesxEyy8M3-224" value="" style="ellipse;whiteSpace=wrap;html=1;aspect=fixed;fillColor=#fef1e0;direction=south;container=0;" parent="5xaBMJCgVQoesxEyy8M3-221" vertex="1">
          <mxGeometry x="10" y="85" width="30" height="30" as="geometry" />
        </mxCell>
        <mxCell id="5xaBMJCgVQoesxEyy8M3-225" value="" style="ellipse;whiteSpace=wrap;html=1;aspect=fixed;fillColor=#ffd9d0;direction=south;container=0;" parent="5xaBMJCgVQoesxEyy8M3-221" vertex="1">
          <mxGeometry x="10" y="120" width="30" height="30" as="geometry" />
        </mxCell>
        <mxCell id="5xaBMJCgVQoesxEyy8M3-226" value="" style="ellipse;whiteSpace=wrap;html=1;aspect=fixed;fillColor=#c8e3ca;direction=south;container=0;" parent="5xaBMJCgVQoesxEyy8M3-221" vertex="1">
          <mxGeometry x="10" y="10" width="30" height="30" as="geometry" />
        </mxCell>
        <mxCell id="5xaBMJCgVQoesxEyy8M3-227" value="" style="ellipse;whiteSpace=wrap;html=1;aspect=fixed;fillColor=#e1d5e7;strokeColor=#9673a6;container=0;" parent="5xaBMJCgVQoesxEyy8M3-221" vertex="1">
          <mxGeometry x="10" y="158" width="30" height="30" as="geometry" />
        </mxCell>
        <mxCell id="5xaBMJCgVQoesxEyy8M3-236" value="&lt;font style=&quot;font-size: 25px;&quot;&gt;Y&lt;sub&gt;slot1&lt;/sub&gt;&lt;/font&gt;" style="rounded=1;whiteSpace=wrap;html=1;" parent="1" vertex="1">
          <mxGeometry x="1450" y="80" width="120" height="60" as="geometry" />
        </mxCell>
        <mxCell id="5xaBMJCgVQoesxEyy8M3-237" value="&lt;font style=&quot;font-size: 25px;&quot;&gt;Y&lt;sub&gt;slot2&lt;/sub&gt;&lt;/font&gt;" style="rounded=1;whiteSpace=wrap;html=1;" parent="1" vertex="1">
          <mxGeometry x="1450" y="160" width="120" height="60" as="geometry" />
        </mxCell>
        <mxCell id="5xaBMJCgVQoesxEyy8M3-238" value="&lt;font style=&quot;font-size: 25px;&quot;&gt;Y&lt;sub&gt;slot3&lt;/sub&gt;&lt;/font&gt;" style="rounded=1;whiteSpace=wrap;html=1;" parent="1" vertex="1">
          <mxGeometry x="1450" y="240" width="120" height="60" as="geometry" />
        </mxCell>
        <mxCell id="5xaBMJCgVQoesxEyy8M3-239" value="&lt;font style=&quot;font-size: 25px;&quot;&gt;Y&lt;sub&gt;slot4&lt;/sub&gt;&lt;/font&gt;" style="rounded=1;whiteSpace=wrap;html=1;" parent="1" vertex="1">
          <mxGeometry x="1450" y="330" width="120" height="60" as="geometry" />
        </mxCell>
        <mxCell id="JTcUMuY575CjnEHDwap5-3" value="" style="group" parent="1" vertex="1" connectable="0">
          <mxGeometry x="470" y="430" width="710" height="50" as="geometry" />
        </mxCell>
        <mxCell id="jO49f_bSaMHnq8z-et_9-33" style="edgeStyle=orthogonalEdgeStyle;rounded=0;orthogonalLoop=1;jettySize=auto;html=1;exitX=0.5;exitY=0;exitDx=0;exitDy=0;" parent="JTcUMuY575CjnEHDwap5-3" source="5xaBMJCgVQoesxEyy8M3-98" edge="1">
          <mxGeometry relative="1" as="geometry">
            <mxPoint x="280" y="-80" as="targetPoint" />
          </mxGeometry>
        </mxCell>
        <mxCell id="5xaBMJCgVQoesxEyy8M3-98" value="" style="rounded=1;whiteSpace=wrap;html=1;" parent="JTcUMuY575CjnEHDwap5-3" vertex="1">
          <mxGeometry width="710" height="50" as="geometry" />
        </mxCell>
        <mxCell id="5xaBMJCgVQoesxEyy8M3-99" value="" style="ellipse;whiteSpace=wrap;html=1;aspect=fixed;fillColor=#c8e3ca;" parent="JTcUMuY575CjnEHDwap5-3" vertex="1">
          <mxGeometry x="20" y="10" width="30" height="30" as="geometry" />
        </mxCell>
        <mxCell id="5xaBMJCgVQoesxEyy8M3-100" value="" style="ellipse;whiteSpace=wrap;html=1;aspect=fixed;fillColor=#c8e3ca;" parent="JTcUMuY575CjnEHDwap5-3" vertex="1">
          <mxGeometry x="60" y="10" width="30" height="30" as="geometry" />
        </mxCell>
        <mxCell id="5xaBMJCgVQoesxEyy8M3-101" value="" style="ellipse;whiteSpace=wrap;html=1;aspect=fixed;fillColor=#c8e3ca;" parent="JTcUMuY575CjnEHDwap5-3" vertex="1">
          <mxGeometry x="140" y="10" width="30" height="30" as="geometry" />
        </mxCell>
        <mxCell id="5xaBMJCgVQoesxEyy8M3-102" value="" style="ellipse;whiteSpace=wrap;html=1;aspect=fixed;fillColor=#c8e3ca;" parent="JTcUMuY575CjnEHDwap5-3" vertex="1">
          <mxGeometry x="100" y="10" width="30" height="30" as="geometry" />
        </mxCell>
        <mxCell id="5xaBMJCgVQoesxEyy8M3-105" value="" style="ellipse;whiteSpace=wrap;html=1;aspect=fixed;fillColor=#afc8ea;" parent="JTcUMuY575CjnEHDwap5-3" vertex="1">
          <mxGeometry x="190" y="10" width="30" height="30" as="geometry" />
        </mxCell>
        <mxCell id="5xaBMJCgVQoesxEyy8M3-106" value="" style="ellipse;whiteSpace=wrap;html=1;aspect=fixed;fillColor=#afc8ea;" parent="JTcUMuY575CjnEHDwap5-3" vertex="1">
          <mxGeometry x="236" y="10" width="30" height="30" as="geometry" />
        </mxCell>
        <mxCell id="5xaBMJCgVQoesxEyy8M3-107" value="" style="ellipse;whiteSpace=wrap;html=1;aspect=fixed;fillColor=#afc8ea;" parent="JTcUMuY575CjnEHDwap5-3" vertex="1">
          <mxGeometry x="320" y="10" width="30" height="30" as="geometry" />
        </mxCell>
        <mxCell id="5xaBMJCgVQoesxEyy8M3-108" value="" style="ellipse;whiteSpace=wrap;html=1;aspect=fixed;fillColor=#afc8ea;" parent="JTcUMuY575CjnEHDwap5-3" vertex="1">
          <mxGeometry x="280" y="10" width="30" height="30" as="geometry" />
        </mxCell>
        <mxCell id="5xaBMJCgVQoesxEyy8M3-109" value="" style="ellipse;whiteSpace=wrap;html=1;aspect=fixed;fillColor=#fef1e0;" parent="JTcUMuY575CjnEHDwap5-3" vertex="1">
          <mxGeometry x="366" y="10" width="30" height="30" as="geometry" />
        </mxCell>
        <mxCell id="5xaBMJCgVQoesxEyy8M3-110" value="" style="ellipse;whiteSpace=wrap;html=1;aspect=fixed;fillColor=#fef1e0;" parent="JTcUMuY575CjnEHDwap5-3" vertex="1">
          <mxGeometry x="410" y="10" width="30" height="30" as="geometry" />
        </mxCell>
        <mxCell id="5xaBMJCgVQoesxEyy8M3-111" value="" style="ellipse;whiteSpace=wrap;html=1;aspect=fixed;fillColor=#fef1e0;" parent="JTcUMuY575CjnEHDwap5-3" vertex="1">
          <mxGeometry x="490" y="10" width="30" height="30" as="geometry" />
        </mxCell>
        <mxCell id="5xaBMJCgVQoesxEyy8M3-112" value="" style="ellipse;whiteSpace=wrap;html=1;aspect=fixed;fillColor=#fef1e0;" parent="JTcUMuY575CjnEHDwap5-3" vertex="1">
          <mxGeometry x="450" y="10" width="30" height="30" as="geometry" />
        </mxCell>
        <mxCell id="5xaBMJCgVQoesxEyy8M3-113" value="" style="ellipse;whiteSpace=wrap;html=1;aspect=fixed;fillColor=#ffd9d0;" parent="JTcUMuY575CjnEHDwap5-3" vertex="1">
          <mxGeometry x="536" y="10" width="30" height="30" as="geometry" />
        </mxCell>
        <mxCell id="5xaBMJCgVQoesxEyy8M3-114" value="" style="ellipse;whiteSpace=wrap;html=1;aspect=fixed;fillColor=#ffd9d0;" parent="JTcUMuY575CjnEHDwap5-3" vertex="1">
          <mxGeometry x="580" y="10" width="30" height="30" as="geometry" />
        </mxCell>
        <mxCell id="5xaBMJCgVQoesxEyy8M3-115" value="" style="ellipse;whiteSpace=wrap;html=1;aspect=fixed;fillColor=#ffd9d0;" parent="JTcUMuY575CjnEHDwap5-3" vertex="1">
          <mxGeometry x="660" y="10" width="30" height="30" as="geometry" />
        </mxCell>
        <mxCell id="5xaBMJCgVQoesxEyy8M3-116" value="" style="ellipse;whiteSpace=wrap;html=1;aspect=fixed;fillColor=#ffd9d0;" parent="JTcUMuY575CjnEHDwap5-3" vertex="1">
          <mxGeometry x="620" y="10" width="30" height="30" as="geometry" />
        </mxCell>
        <mxCell id="jO49f_bSaMHnq8z-et_9-6" style="edgeStyle=orthogonalEdgeStyle;rounded=0;orthogonalLoop=1;jettySize=auto;html=1;exitX=0.5;exitY=0;exitDx=0;exitDy=0;entryX=0.5;entryY=1;entryDx=0;entryDy=0;endArrow=none;endFill=0;" parent="1" source="5xaBMJCgVQoesxEyy8M3-57" target="5xaBMJCgVQoesxEyy8M3-98" edge="1">
          <mxGeometry relative="1" as="geometry">
            <Array as="points">
              <mxPoint x="165" y="570" />
              <mxPoint x="825" y="570" />
            </Array>
          </mxGeometry>
        </mxCell>
        <mxCell id="jO49f_bSaMHnq8z-et_9-16" style="edgeStyle=orthogonalEdgeStyle;rounded=0;orthogonalLoop=1;jettySize=auto;html=1;exitX=1;exitY=0.5;exitDx=0;exitDy=0;" parent="1" source="5xaBMJCgVQoesxEyy8M3-230" target="5xaBMJCgVQoesxEyy8M3-132" edge="1">
          <mxGeometry relative="1" as="geometry" />
        </mxCell>
        <mxCell id="jO49f_bSaMHnq8z-et_9-34" style="edgeStyle=orthogonalEdgeStyle;rounded=0;orthogonalLoop=1;jettySize=auto;html=1;exitX=0.5;exitY=0;exitDx=0;exitDy=0;entryX=0.5;entryY=1;entryDx=0;entryDy=0;" parent="1" source="5xaBMJCgVQoesxEyy8M3-98" target="5xaBMJCgVQoesxEyy8M3-131" edge="1">
          <mxGeometry relative="1" as="geometry">
            <Array as="points">
              <mxPoint x="825" y="390" />
              <mxPoint x="257" y="390" />
            </Array>
          </mxGeometry>
        </mxCell>
        <mxCell id="O50cXXiidikAElt1FalA-1" value="" style="rounded=0;whiteSpace=wrap;html=1;strokeWidth=2;dashed=1;" parent="1" vertex="1">
          <mxGeometry x="1620" y="70" width="1100" height="690" as="geometry" />
        </mxCell>
        <mxCell id="O50cXXiidikAElt1FalA-2" value="" style="group" parent="1" vertex="1" connectable="0">
          <mxGeometry x="1821" y="529" width="710" height="50" as="geometry" />
        </mxCell>
        <mxCell id="O50cXXiidikAElt1FalA-3" value="" style="rounded=1;whiteSpace=wrap;html=1;container=0;" parent="O50cXXiidikAElt1FalA-2" vertex="1">
          <mxGeometry width="710" height="50" as="geometry" />
        </mxCell>
        <mxCell id="O50cXXiidikAElt1FalA-4" value="" style="ellipse;whiteSpace=wrap;html=1;aspect=fixed;fillColor=#c8e3ca;container=0;" parent="O50cXXiidikAElt1FalA-2" vertex="1">
          <mxGeometry x="19" y="10" width="30" height="30" as="geometry" />
        </mxCell>
        <mxCell id="O50cXXiidikAElt1FalA-5" value="" style="ellipse;whiteSpace=wrap;html=1;aspect=fixed;fillColor=#c8e3ca;container=0;" parent="O50cXXiidikAElt1FalA-2" vertex="1">
          <mxGeometry x="60" y="10" width="30" height="30" as="geometry" />
        </mxCell>
        <mxCell id="O50cXXiidikAElt1FalA-6" value="" style="ellipse;whiteSpace=wrap;html=1;aspect=fixed;fillColor=#c8e3ca;container=0;" parent="O50cXXiidikAElt1FalA-2" vertex="1">
          <mxGeometry x="144" y="10" width="30" height="30" as="geometry" />
        </mxCell>
        <mxCell id="O50cXXiidikAElt1FalA-7" value="" style="ellipse;whiteSpace=wrap;html=1;aspect=fixed;fillColor=#c8e3ca;container=0;" parent="O50cXXiidikAElt1FalA-2" vertex="1">
          <mxGeometry x="103" y="10" width="30" height="30" as="geometry" />
        </mxCell>
        <mxCell id="O50cXXiidikAElt1FalA-8" value="" style="ellipse;whiteSpace=wrap;html=1;aspect=fixed;fillColor=#afc8ea;container=0;" parent="O50cXXiidikAElt1FalA-2" vertex="1">
          <mxGeometry x="192" y="10" width="30" height="30" as="geometry" />
        </mxCell>
        <mxCell id="O50cXXiidikAElt1FalA-9" value="" style="ellipse;whiteSpace=wrap;html=1;aspect=fixed;fillColor=#afc8ea;container=0;" parent="O50cXXiidikAElt1FalA-2" vertex="1">
          <mxGeometry x="233" y="10" width="30" height="30" as="geometry" />
        </mxCell>
        <mxCell id="O50cXXiidikAElt1FalA-10" value="" style="ellipse;whiteSpace=wrap;html=1;aspect=fixed;fillColor=#afc8ea;container=0;" parent="O50cXXiidikAElt1FalA-2" vertex="1">
          <mxGeometry x="317" y="10" width="30" height="30" as="geometry" />
        </mxCell>
        <mxCell id="O50cXXiidikAElt1FalA-11" value="" style="ellipse;whiteSpace=wrap;html=1;aspect=fixed;fillColor=#afc8ea;container=0;" parent="O50cXXiidikAElt1FalA-2" vertex="1">
          <mxGeometry x="276" y="10" width="30" height="30" as="geometry" />
        </mxCell>
        <mxCell id="O50cXXiidikAElt1FalA-12" value="" style="ellipse;whiteSpace=wrap;html=1;aspect=fixed;fillColor=#fef1e0;container=0;" parent="O50cXXiidikAElt1FalA-2" vertex="1">
          <mxGeometry x="364.75" y="10" width="30" height="30" as="geometry" />
        </mxCell>
        <mxCell id="O50cXXiidikAElt1FalA-13" value="" style="ellipse;whiteSpace=wrap;html=1;aspect=fixed;fillColor=#fef1e0;container=0;" parent="O50cXXiidikAElt1FalA-2" vertex="1">
          <mxGeometry x="405.75" y="10" width="30" height="30" as="geometry" />
        </mxCell>
        <mxCell id="O50cXXiidikAElt1FalA-14" value="" style="ellipse;whiteSpace=wrap;html=1;aspect=fixed;fillColor=#fef1e0;container=0;" parent="O50cXXiidikAElt1FalA-2" vertex="1">
          <mxGeometry x="489.75" y="10" width="30" height="30" as="geometry" />
        </mxCell>
        <mxCell id="O50cXXiidikAElt1FalA-15" value="" style="ellipse;whiteSpace=wrap;html=1;aspect=fixed;fillColor=#fef1e0;container=0;" parent="O50cXXiidikAElt1FalA-2" vertex="1">
          <mxGeometry x="448.75" y="10" width="30" height="30" as="geometry" />
        </mxCell>
        <mxCell id="O50cXXiidikAElt1FalA-16" value="" style="ellipse;whiteSpace=wrap;html=1;aspect=fixed;fillColor=#ffd9d0;container=0;" parent="O50cXXiidikAElt1FalA-2" vertex="1">
          <mxGeometry x="534" y="10" width="30" height="30" as="geometry" />
        </mxCell>
        <mxCell id="O50cXXiidikAElt1FalA-17" value="" style="ellipse;whiteSpace=wrap;html=1;aspect=fixed;fillColor=#ffd9d0;container=0;" parent="O50cXXiidikAElt1FalA-2" vertex="1">
          <mxGeometry x="575" y="10" width="30" height="30" as="geometry" />
        </mxCell>
        <mxCell id="O50cXXiidikAElt1FalA-18" value="" style="ellipse;whiteSpace=wrap;html=1;aspect=fixed;fillColor=#ffd9d0;container=0;" parent="O50cXXiidikAElt1FalA-2" vertex="1">
          <mxGeometry x="659" y="10" width="30" height="30" as="geometry" />
        </mxCell>
        <mxCell id="O50cXXiidikAElt1FalA-19" value="" style="ellipse;whiteSpace=wrap;html=1;aspect=fixed;fillColor=#ffd9d0;container=0;" parent="O50cXXiidikAElt1FalA-2" vertex="1">
          <mxGeometry x="618" y="10" width="30" height="30" as="geometry" />
        </mxCell>
        <mxCell id="O50cXXiidikAElt1FalA-20" style="edgeStyle=orthogonalEdgeStyle;rounded=0;orthogonalLoop=1;jettySize=auto;html=1;exitX=0.5;exitY=0;exitDx=0;exitDy=0;entryX=0.5;entryY=1;entryDx=0;entryDy=0;" parent="1" source="O50cXXiidikAElt1FalA-21" target="O50cXXiidikAElt1FalA-23" edge="1">
          <mxGeometry relative="1" as="geometry" />
        </mxCell>
        <mxCell id="O50cXXiidikAElt1FalA-21" value="&lt;font style=&quot;font-size: 30px;&quot; face=&quot;Times New Roman&quot;&gt;CNN&lt;sup&gt;k&lt;/sup&gt;&lt;/font&gt;" style="rounded=1;whiteSpace=wrap;html=1;fillColor=#D3C8D9;strokeColor=#9673a6;" parent="1" vertex="1">
          <mxGeometry x="1700" y="391" width="158" height="60" as="geometry" />
        </mxCell>
        <mxCell id="O50cXXiidikAElt1FalA-22" style="edgeStyle=orthogonalEdgeStyle;rounded=0;orthogonalLoop=1;jettySize=auto;html=1;exitX=0.5;exitY=0;exitDx=0;exitDy=0;entryX=0.5;entryY=1;entryDx=0;entryDy=0;" parent="1" source="O50cXXiidikAElt1FalA-23" target="O50cXXiidikAElt1FalA-26" edge="1">
          <mxGeometry relative="1" as="geometry" />
        </mxCell>
        <mxCell id="O50cXXiidikAElt1FalA-23" value="&lt;font style=&quot;font-size: 30px;&quot; face=&quot;Times New Roman&quot;&gt;MeanPool&lt;/font&gt;" style="rounded=1;whiteSpace=wrap;html=1;fillColor=#D3C8D9;strokeColor=#9673a6;" parent="1" vertex="1">
          <mxGeometry x="1700" y="300" width="158" height="60" as="geometry" />
        </mxCell>
        <mxCell id="O50cXXiidikAElt1FalA-24" value="&lt;font style=&quot;font-size: 30px;&quot; face=&quot;Times New Roman&quot;&gt;Global Textual Aggregator&lt;/font&gt;" style="text;html=1;align=center;verticalAlign=middle;resizable=0;points=[];autosize=1;strokeColor=none;fillColor=none;" parent="1" vertex="1">
          <mxGeometry x="2001" y="80" width="340" height="50" as="geometry" />
        </mxCell>
        <mxCell id="O50cXXiidikAElt1FalA-25" value="" style="group" parent="1" vertex="1" connectable="0">
          <mxGeometry x="2066" y="150" width="210" height="60" as="geometry" />
        </mxCell>
        <mxCell id="O50cXXiidikAElt1FalA-26" value="&lt;font style=&quot;font-size: 30px;&quot; face=&quot;Times New Roman&quot;&gt;&lt;i&gt;h&lt;sub&gt;intent&lt;/sub&gt;&lt;/i&gt;&lt;/font&gt;" style="rounded=1;whiteSpace=wrap;html=1;" parent="O50cXXiidikAElt1FalA-25" vertex="1">
          <mxGeometry width="210" height="60" as="geometry" />
        </mxCell>
        <mxCell id="O50cXXiidikAElt1FalA-27" value="" style="ellipse;whiteSpace=wrap;html=1;aspect=fixed;fillColor=#e1d5e7;strokeColor=#9673a6;container=0;" parent="O50cXXiidikAElt1FalA-25" vertex="1">
          <mxGeometry x="10" y="15" width="30" height="30" as="geometry" />
        </mxCell>
        <mxCell id="O50cXXiidikAElt1FalA-28" style="edgeStyle=orthogonalEdgeStyle;rounded=0;orthogonalLoop=1;jettySize=auto;html=1;exitX=0.5;exitY=0;exitDx=0;exitDy=0;entryX=0.5;entryY=1;entryDx=0;entryDy=0;" parent="1" source="O50cXXiidikAElt1FalA-29" target="O50cXXiidikAElt1FalA-33" edge="1">
          <mxGeometry relative="1" as="geometry" />
        </mxCell>
        <mxCell id="O50cXXiidikAElt1FalA-29" value="&lt;font style=&quot;font-size: 30px;&quot; face=&quot;Times New Roman&quot;&gt;CNN&lt;sup&gt;k&lt;/sup&gt;&lt;/font&gt;" style="rounded=1;whiteSpace=wrap;html=1;fillColor=#D3C8D9;strokeColor=#9673a6;" parent="1" vertex="1">
          <mxGeometry x="2092" y="391" width="158" height="60" as="geometry" />
        </mxCell>
        <mxCell id="O50cXXiidikAElt1FalA-30" style="edgeStyle=orthogonalEdgeStyle;rounded=0;orthogonalLoop=1;jettySize=auto;html=1;exitX=0.5;exitY=0;exitDx=0;exitDy=0;entryX=0.5;entryY=1;entryDx=0;entryDy=0;" parent="1" source="O50cXXiidikAElt1FalA-31" target="O50cXXiidikAElt1FalA-35" edge="1">
          <mxGeometry relative="1" as="geometry" />
        </mxCell>
        <mxCell id="O50cXXiidikAElt1FalA-31" value="&lt;font style=&quot;font-size: 30px;&quot; face=&quot;Times New Roman&quot;&gt;CNN&lt;sup&gt;k&lt;/sup&gt;&lt;/font&gt;" style="rounded=1;whiteSpace=wrap;html=1;fillColor=#D3C8D9;strokeColor=#9673a6;" parent="1" vertex="1">
          <mxGeometry x="2480" y="391" width="158" height="60" as="geometry" />
        </mxCell>
        <mxCell id="O50cXXiidikAElt1FalA-32" style="edgeStyle=orthogonalEdgeStyle;rounded=0;orthogonalLoop=1;jettySize=auto;html=1;exitX=0.5;exitY=0;exitDx=0;exitDy=0;endArrow=none;endFill=0;" parent="1" source="O50cXXiidikAElt1FalA-33" edge="1">
          <mxGeometry relative="1" as="geometry">
            <mxPoint x="2171.170731707317" y="210" as="targetPoint" />
          </mxGeometry>
        </mxCell>
        <mxCell id="O50cXXiidikAElt1FalA-33" value="&lt;font style=&quot;font-size: 30px;&quot; face=&quot;Times New Roman&quot;&gt;MeanPool&lt;/font&gt;" style="rounded=1;whiteSpace=wrap;html=1;fillColor=#D3C8D9;strokeColor=#9673a6;" parent="1" vertex="1">
          <mxGeometry x="2092" y="300" width="158" height="60" as="geometry" />
        </mxCell>
        <mxCell id="O50cXXiidikAElt1FalA-34" style="edgeStyle=orthogonalEdgeStyle;rounded=0;orthogonalLoop=1;jettySize=auto;html=1;exitX=0.5;exitY=0;exitDx=0;exitDy=0;endArrow=none;endFill=0;" parent="1" edge="1">
          <mxGeometry relative="1" as="geometry">
            <mxPoint x="2171" y="210" as="targetPoint" />
            <mxPoint x="2560" y="300" as="sourcePoint" />
            <Array as="points">
              <mxPoint x="2560" y="255" />
              <mxPoint x="2171" y="255" />
            </Array>
          </mxGeometry>
        </mxCell>
        <mxCell id="O50cXXiidikAElt1FalA-35" value="&lt;font style=&quot;font-size: 30px;&quot; face=&quot;Times New Roman&quot;&gt;MeanPool&lt;/font&gt;" style="rounded=1;whiteSpace=wrap;html=1;fillColor=#D3C8D9;strokeColor=#9673a6;" parent="1" vertex="1">
          <mxGeometry x="2480" y="300" width="158" height="60" as="geometry" />
        </mxCell>
        <mxCell id="O50cXXiidikAElt1FalA-36" style="edgeStyle=orthogonalEdgeStyle;rounded=0;orthogonalLoop=1;jettySize=auto;html=1;exitX=0.5;exitY=0;exitDx=0;exitDy=0;entryX=0.5;entryY=1;entryDx=0;entryDy=0;" parent="1" source="O50cXXiidikAElt1FalA-3" target="O50cXXiidikAElt1FalA-21" edge="1">
          <mxGeometry relative="1" as="geometry" />
        </mxCell>
        <mxCell id="O50cXXiidikAElt1FalA-37" style="edgeStyle=orthogonalEdgeStyle;rounded=0;orthogonalLoop=1;jettySize=auto;html=1;exitX=0.5;exitY=0;exitDx=0;exitDy=0;entryX=0.53;entryY=1.011;entryDx=0;entryDy=0;entryPerimeter=0;" parent="1" source="O50cXXiidikAElt1FalA-3" target="O50cXXiidikAElt1FalA-29" edge="1">
          <mxGeometry relative="1" as="geometry" />
        </mxCell>
        <mxCell id="O50cXXiidikAElt1FalA-38" style="edgeStyle=orthogonalEdgeStyle;rounded=0;orthogonalLoop=1;jettySize=auto;html=1;exitX=0.5;exitY=0;exitDx=0;exitDy=0;" parent="1" source="O50cXXiidikAElt1FalA-3" target="O50cXXiidikAElt1FalA-31" edge="1">
          <mxGeometry relative="1" as="geometry" />
        </mxCell>
        <mxCell id="O50cXXiidikAElt1FalA-39" value="&lt;span style=&quot;background-color: initial;&quot;&gt;&lt;font face=&quot;Times New Roman&quot; style=&quot;font-size: 25px;&quot;&gt;Concatenation&lt;/font&gt;&lt;/span&gt;" style="text;html=1;align=center;verticalAlign=middle;resizable=0;points=[];autosize=1;strokeColor=none;fillColor=none;" parent="1" vertex="1">
          <mxGeometry x="2200" y="220" width="170" height="40" as="geometry" />
        </mxCell>
        <mxCell id="O50cXXiidikAElt1FalA-40" style="edgeStyle=orthogonalEdgeStyle;rounded=0;orthogonalLoop=1;jettySize=auto;html=1;exitX=0.5;exitY=0;exitDx=0;exitDy=0;entryX=0.5;entryY=1;entryDx=0;entryDy=0;endArrow=none;endFill=0;" parent="1" source="O50cXXiidikAElt1FalA-41" target="O50cXXiidikAElt1FalA-3" edge="1">
          <mxGeometry relative="1" as="geometry" />
        </mxCell>
        <mxCell id="O50cXXiidikAElt1FalA-41" value="" style="rounded=1;whiteSpace=wrap;html=1;" parent="1" vertex="1">
          <mxGeometry x="1641" y="683" width="170" height="50" as="geometry" />
        </mxCell>
        <mxCell id="O50cXXiidikAElt1FalA-42" value="" style="ellipse;whiteSpace=wrap;html=1;aspect=fixed;fillColor=#c8e3ca;" parent="1" vertex="1">
          <mxGeometry x="1651" y="693" width="30" height="30" as="geometry" />
        </mxCell>
        <mxCell id="O50cXXiidikAElt1FalA-43" value="" style="ellipse;whiteSpace=wrap;html=1;aspect=fixed;fillColor=#c8e3ca;" parent="1" vertex="1">
          <mxGeometry x="1691" y="693" width="30" height="30" as="geometry" />
        </mxCell>
        <mxCell id="O50cXXiidikAElt1FalA-44" value="" style="ellipse;whiteSpace=wrap;html=1;aspect=fixed;fillColor=#c8e3ca;" parent="1" vertex="1">
          <mxGeometry x="1771" y="693" width="30" height="30" as="geometry" />
        </mxCell>
        <mxCell id="O50cXXiidikAElt1FalA-45" value="" style="ellipse;whiteSpace=wrap;html=1;aspect=fixed;fillColor=#c8e3ca;" parent="1" vertex="1">
          <mxGeometry x="1731" y="693" width="30" height="30" as="geometry" />
        </mxCell>
        <mxCell id="O50cXXiidikAElt1FalA-46" style="edgeStyle=orthogonalEdgeStyle;rounded=0;orthogonalLoop=1;jettySize=auto;html=1;exitX=0.5;exitY=0;exitDx=0;exitDy=0;entryX=0.5;entryY=1;entryDx=0;entryDy=0;" parent="1" source="O50cXXiidikAElt1FalA-47" target="O50cXXiidikAElt1FalA-3" edge="1">
          <mxGeometry relative="1" as="geometry" />
        </mxCell>
        <mxCell id="O50cXXiidikAElt1FalA-47" value="" style="rounded=1;whiteSpace=wrap;html=1;" parent="1" vertex="1">
          <mxGeometry x="1931" y="683" width="170" height="50" as="geometry" />
        </mxCell>
        <mxCell id="O50cXXiidikAElt1FalA-48" value="" style="ellipse;whiteSpace=wrap;html=1;aspect=fixed;fillColor=#afc8ea;" parent="1" vertex="1">
          <mxGeometry x="1941" y="693" width="30" height="30" as="geometry" />
        </mxCell>
        <mxCell id="O50cXXiidikAElt1FalA-49" value="" style="ellipse;whiteSpace=wrap;html=1;aspect=fixed;fillColor=#afc8ea;" parent="1" vertex="1">
          <mxGeometry x="2001" y="693" width="30" height="30" as="geometry" />
        </mxCell>
        <mxCell id="O50cXXiidikAElt1FalA-50" value="" style="ellipse;whiteSpace=wrap;html=1;aspect=fixed;fillColor=#afc8ea;" parent="1" vertex="1">
          <mxGeometry x="2061" y="693" width="30" height="30" as="geometry" />
        </mxCell>
        <mxCell id="O50cXXiidikAElt1FalA-51" style="edgeStyle=orthogonalEdgeStyle;rounded=0;orthogonalLoop=1;jettySize=auto;html=1;exitX=0.5;exitY=0;exitDx=0;exitDy=0;entryX=0.5;entryY=1;entryDx=0;entryDy=0;endArrow=none;endFill=0;" parent="1" source="O50cXXiidikAElt1FalA-52" target="O50cXXiidikAElt1FalA-3" edge="1">
          <mxGeometry relative="1" as="geometry" />
        </mxCell>
        <mxCell id="O50cXXiidikAElt1FalA-52" value="" style="rounded=1;whiteSpace=wrap;html=1;" parent="1" vertex="1">
          <mxGeometry x="2221" y="683" width="170" height="50" as="geometry" />
        </mxCell>
        <mxCell id="O50cXXiidikAElt1FalA-53" value="" style="ellipse;whiteSpace=wrap;html=1;aspect=fixed;fillColor=#fef1e0;" parent="1" vertex="1">
          <mxGeometry x="2230" y="693" width="30" height="30" as="geometry" />
        </mxCell>
        <mxCell id="O50cXXiidikAElt1FalA-54" value="" style="ellipse;whiteSpace=wrap;html=1;aspect=fixed;fillColor=#fef1e0;" parent="1" vertex="1">
          <mxGeometry x="2271" y="693" width="30" height="30" as="geometry" />
        </mxCell>
        <mxCell id="O50cXXiidikAElt1FalA-55" value="" style="ellipse;whiteSpace=wrap;html=1;aspect=fixed;fillColor=#fef1e0;" parent="1" vertex="1">
          <mxGeometry x="2351" y="693" width="30" height="30" as="geometry" />
        </mxCell>
        <mxCell id="O50cXXiidikAElt1FalA-56" value="" style="ellipse;whiteSpace=wrap;html=1;aspect=fixed;fillColor=#fef1e0;" parent="1" vertex="1">
          <mxGeometry x="2311" y="693" width="30" height="30" as="geometry" />
        </mxCell>
        <mxCell id="O50cXXiidikAElt1FalA-57" style="edgeStyle=orthogonalEdgeStyle;rounded=0;orthogonalLoop=1;jettySize=auto;html=1;exitX=0.5;exitY=0;exitDx=0;exitDy=0;entryX=0.5;entryY=1;entryDx=0;entryDy=0;endArrow=none;endFill=0;" parent="1" source="O50cXXiidikAElt1FalA-58" target="O50cXXiidikAElt1FalA-3" edge="1">
          <mxGeometry relative="1" as="geometry" />
        </mxCell>
        <mxCell id="O50cXXiidikAElt1FalA-58" value="" style="rounded=1;whiteSpace=wrap;html=1;" parent="1" vertex="1">
          <mxGeometry x="2531" y="683" width="170" height="50" as="geometry" />
        </mxCell>
        <mxCell id="O50cXXiidikAElt1FalA-59" value="" style="ellipse;whiteSpace=wrap;html=1;aspect=fixed;fillColor=#ffd9d0;" parent="1" vertex="1">
          <mxGeometry x="2541" y="693" width="30" height="30" as="geometry" />
        </mxCell>
        <mxCell id="O50cXXiidikAElt1FalA-60" value="" style="ellipse;whiteSpace=wrap;html=1;aspect=fixed;fillColor=#ffd9d0;" parent="1" vertex="1">
          <mxGeometry x="2581" y="693" width="30" height="30" as="geometry" />
        </mxCell>
        <mxCell id="O50cXXiidikAElt1FalA-61" value="" style="ellipse;whiteSpace=wrap;html=1;aspect=fixed;fillColor=#ffd9d0;" parent="1" vertex="1">
          <mxGeometry x="2661" y="693" width="30" height="30" as="geometry" />
        </mxCell>
        <mxCell id="O50cXXiidikAElt1FalA-62" value="" style="ellipse;whiteSpace=wrap;html=1;aspect=fixed;fillColor=#ffd9d0;" parent="1" vertex="1">
          <mxGeometry x="2621" y="693" width="30" height="30" as="geometry" />
        </mxCell>
        <mxCell id="O50cXXiidikAElt1FalA-63" value="&lt;span style=&quot;background-color: initial;&quot;&gt;&lt;font face=&quot;Times New Roman&quot; style=&quot;font-size: 30px;&quot;&gt;Concatenation&lt;/font&gt;&lt;/span&gt;" style="text;html=1;align=center;verticalAlign=middle;resizable=0;points=[];autosize=1;strokeColor=none;fillColor=none;" parent="1" vertex="1">
          <mxGeometry x="2201" y="585" width="200" height="50" as="geometry" />
        </mxCell>
        <mxCell id="O50cXXiidikAElt1FalA-90" value="&lt;font style=&quot;font-size: 40px;&quot; face=&quot;Times New Roman&quot;&gt;(a)&lt;/font&gt;" style="text;html=1;align=center;verticalAlign=middle;whiteSpace=wrap;rounded=0;" parent="1" vertex="1">
          <mxGeometry x="795" y="1180" width="60" height="30" as="geometry" />
        </mxCell>
        <mxCell id="O50cXXiidikAElt1FalA-91" value="&lt;font style=&quot;font-size: 40px;&quot; face=&quot;Times New Roman&quot;&gt;(b)&lt;/font&gt;" style="text;html=1;align=center;verticalAlign=middle;whiteSpace=wrap;rounded=0;" parent="1" vertex="1">
          <mxGeometry x="2146" y="772" width="60" height="30" as="geometry" />
        </mxCell>
        <mxCell id="O50cXXiidikAElt1FalA-92" value="&lt;font style=&quot;font-size: 40px;&quot; face=&quot;Times New Roman&quot;&gt;(c)&lt;/font&gt;" style="text;html=1;align=center;verticalAlign=middle;whiteSpace=wrap;rounded=0;" parent="1" vertex="1">
          <mxGeometry x="2146" y="1180" width="60" height="30" as="geometry" />
        </mxCell>
        <mxCell id="5ybYp6yLcuB_kvrWJm-r-21" value="" style="group" vertex="1" connectable="0" parent="1">
          <mxGeometry x="1620" y="820" width="1106" height="340" as="geometry" />
        </mxCell>
        <mxCell id="O50cXXiidikAElt1FalA-64" value="" style="rounded=0;whiteSpace=wrap;html=1;strokeWidth=2;dashed=1;" parent="5ybYp6yLcuB_kvrWJm-r-21" vertex="1">
          <mxGeometry width="1106" height="340" as="geometry" />
        </mxCell>
        <mxCell id="O50cXXiidikAElt1FalA-65" style="edgeStyle=orthogonalEdgeStyle;rounded=0;orthogonalLoop=1;jettySize=auto;html=1;exitX=1;exitY=0.5;exitDx=0;exitDy=0;entryX=0;entryY=0.5;entryDx=0;entryDy=0;" parent="5ybYp6yLcuB_kvrWJm-r-21" source="O50cXXiidikAElt1FalA-66" target="O50cXXiidikAElt1FalA-68" edge="1">
          <mxGeometry relative="1" as="geometry" />
        </mxCell>
        <mxCell id="O50cXXiidikAElt1FalA-66" value="&lt;font style=&quot;font-size: 30px;&quot; face=&quot;Times New Roman&quot;&gt;CNN&lt;sup&gt;k&lt;/sup&gt;&lt;/font&gt;" style="rounded=1;whiteSpace=wrap;html=1;fillColor=#D3C8D9;strokeColor=#9673a6;" parent="5ybYp6yLcuB_kvrWJm-r-21" vertex="1">
          <mxGeometry x="190" y="70.5" width="130" height="70" as="geometry" />
        </mxCell>
        <mxCell id="5ybYp6yLcuB_kvrWJm-r-18" style="edgeStyle=orthogonalEdgeStyle;rounded=0;orthogonalLoop=1;jettySize=auto;html=1;exitX=1;exitY=0.5;exitDx=0;exitDy=0;entryX=0;entryY=0.5;entryDx=0;entryDy=0;" edge="1" parent="5ybYp6yLcuB_kvrWJm-r-21" source="O50cXXiidikAElt1FalA-68" target="O50cXXiidikAElt1FalA-76">
          <mxGeometry relative="1" as="geometry">
            <Array as="points">
              <mxPoint x="666" y="105" />
              <mxPoint x="666" y="200" />
            </Array>
          </mxGeometry>
        </mxCell>
        <mxCell id="O50cXXiidikAElt1FalA-68" value="&lt;font style=&quot;font-size: 30px;&quot; face=&quot;Times New Roman&quot;&gt;MaxPool&lt;/font&gt;" style="rounded=1;whiteSpace=wrap;html=1;fillColor=#D3C8D9;strokeColor=#9673a6;" parent="5ybYp6yLcuB_kvrWJm-r-21" vertex="1">
          <mxGeometry x="480" y="70.5" width="150" height="70" as="geometry" />
        </mxCell>
        <mxCell id="O50cXXiidikAElt1FalA-69" value="" style="group" parent="5ybYp6yLcuB_kvrWJm-r-21" vertex="1" connectable="0">
          <mxGeometry x="32" y="102" width="45" height="200" as="geometry" />
        </mxCell>
        <mxCell id="O50cXXiidikAElt1FalA-70" value="" style="rounded=1;whiteSpace=wrap;html=1;direction=south;container=0;" parent="O50cXXiidikAElt1FalA-69" vertex="1">
          <mxGeometry y="-1" width="45" height="200" as="geometry" />
        </mxCell>
        <mxCell id="O50cXXiidikAElt1FalA-71" value="" style="ellipse;whiteSpace=wrap;html=1;aspect=fixed;fillColor=#afc8ea;direction=south;container=0;" parent="O50cXXiidikAElt1FalA-69" vertex="1">
          <mxGeometry x="7" y="46" width="30" height="30" as="geometry" />
        </mxCell>
        <mxCell id="O50cXXiidikAElt1FalA-72" value="" style="ellipse;whiteSpace=wrap;html=1;aspect=fixed;fillColor=#fef1e0;direction=south;container=0;" parent="O50cXXiidikAElt1FalA-69" vertex="1">
          <mxGeometry x="7" y="81" width="30" height="30" as="geometry" />
        </mxCell>
        <mxCell id="O50cXXiidikAElt1FalA-73" value="" style="ellipse;whiteSpace=wrap;html=1;aspect=fixed;fillColor=#ffd9d0;direction=south;container=0;" parent="O50cXXiidikAElt1FalA-69" vertex="1">
          <mxGeometry x="7" y="118" width="30" height="30" as="geometry" />
        </mxCell>
        <mxCell id="O50cXXiidikAElt1FalA-74" value="" style="ellipse;whiteSpace=wrap;html=1;aspect=fixed;fillColor=#c8e3ca;direction=south;container=0;" parent="O50cXXiidikAElt1FalA-69" vertex="1">
          <mxGeometry x="7" y="11" width="30" height="30" as="geometry" />
        </mxCell>
        <mxCell id="O50cXXiidikAElt1FalA-75" value="" style="ellipse;whiteSpace=wrap;html=1;aspect=fixed;fillColor=#e1d5e7;strokeColor=#9673a6;container=0;" parent="O50cXXiidikAElt1FalA-69" vertex="1">
          <mxGeometry x="7" y="156" width="30" height="30" as="geometry" />
        </mxCell>
        <mxCell id="O50cXXiidikAElt1FalA-76" value="&lt;font style=&quot;font-size: 25px;&quot;&gt;Y&lt;sub&gt;slot&lt;/sub&gt;&lt;/font&gt;" style="rounded=1;whiteSpace=wrap;html=1;" parent="5ybYp6yLcuB_kvrWJm-r-21" vertex="1">
          <mxGeometry x="860" y="170.5" width="120" height="60" as="geometry" />
        </mxCell>
        <mxCell id="O50cXXiidikAElt1FalA-77" value="&lt;font style=&quot;font-size: 30px;&quot; face=&quot;Times New Roman&quot;&gt;Local Textual Aggregator&lt;/font&gt;" style="text;html=1;align=center;verticalAlign=middle;resizable=0;points=[];autosize=1;strokeColor=none;fillColor=none;" parent="5ybYp6yLcuB_kvrWJm-r-21" vertex="1">
          <mxGeometry x="386" y="2" width="330" height="50" as="geometry" />
        </mxCell>
        <mxCell id="O50cXXiidikAElt1FalA-78" style="edgeStyle=orthogonalEdgeStyle;rounded=0;orthogonalLoop=1;jettySize=auto;html=1;exitX=1;exitY=0.5;exitDx=0;exitDy=0;entryX=0;entryY=0.5;entryDx=0;entryDy=0;" parent="5ybYp6yLcuB_kvrWJm-r-21" source="O50cXXiidikAElt1FalA-79" target="O50cXXiidikAElt1FalA-83" edge="1">
          <mxGeometry relative="1" as="geometry" />
        </mxCell>
        <mxCell id="O50cXXiidikAElt1FalA-79" value="&lt;font style=&quot;font-size: 30px;&quot; face=&quot;Times New Roman&quot;&gt;CNN&lt;sup&gt;k&lt;/sup&gt;&lt;/font&gt;" style="rounded=1;whiteSpace=wrap;html=1;fillColor=#D3C8D9;strokeColor=#9673a6;" parent="5ybYp6yLcuB_kvrWJm-r-21" vertex="1">
          <mxGeometry x="189" y="165.5" width="130" height="70" as="geometry" />
        </mxCell>
        <mxCell id="O50cXXiidikAElt1FalA-80" style="edgeStyle=orthogonalEdgeStyle;rounded=0;orthogonalLoop=1;jettySize=auto;html=1;exitX=1;exitY=0.5;exitDx=0;exitDy=0;entryX=0;entryY=0.5;entryDx=0;entryDy=0;" parent="5ybYp6yLcuB_kvrWJm-r-21" source="O50cXXiidikAElt1FalA-81" target="O50cXXiidikAElt1FalA-85" edge="1">
          <mxGeometry relative="1" as="geometry" />
        </mxCell>
        <mxCell id="O50cXXiidikAElt1FalA-81" value="&lt;font style=&quot;font-size: 30px;&quot; face=&quot;Times New Roman&quot;&gt;CNN&lt;sup&gt;k&lt;/sup&gt;&lt;/font&gt;" style="rounded=1;whiteSpace=wrap;html=1;fillColor=#D3C8D9;strokeColor=#9673a6;" parent="5ybYp6yLcuB_kvrWJm-r-21" vertex="1">
          <mxGeometry x="190" y="258.5" width="130" height="70" as="geometry" />
        </mxCell>
        <mxCell id="5ybYp6yLcuB_kvrWJm-r-19" style="edgeStyle=orthogonalEdgeStyle;rounded=0;orthogonalLoop=1;jettySize=auto;html=1;exitX=1;exitY=0.5;exitDx=0;exitDy=0;entryX=0;entryY=0.5;entryDx=0;entryDy=0;endArrow=none;endFill=0;" edge="1" parent="5ybYp6yLcuB_kvrWJm-r-21" source="O50cXXiidikAElt1FalA-83" target="O50cXXiidikAElt1FalA-76">
          <mxGeometry relative="1" as="geometry" />
        </mxCell>
        <mxCell id="O50cXXiidikAElt1FalA-83" value="&lt;font style=&quot;font-size: 30px;&quot; face=&quot;Times New Roman&quot;&gt;MaxPool&lt;/font&gt;" style="rounded=1;whiteSpace=wrap;html=1;fillColor=#D3C8D9;strokeColor=#9673a6;" parent="5ybYp6yLcuB_kvrWJm-r-21" vertex="1">
          <mxGeometry x="480" y="166" width="150" height="70" as="geometry" />
        </mxCell>
        <mxCell id="5ybYp6yLcuB_kvrWJm-r-20" style="edgeStyle=orthogonalEdgeStyle;rounded=0;orthogonalLoop=1;jettySize=auto;html=1;exitX=1;exitY=0.5;exitDx=0;exitDy=0;entryX=0;entryY=0.5;entryDx=0;entryDy=0;endArrow=none;endFill=0;" edge="1" parent="5ybYp6yLcuB_kvrWJm-r-21" source="O50cXXiidikAElt1FalA-85" target="O50cXXiidikAElt1FalA-76">
          <mxGeometry relative="1" as="geometry">
            <Array as="points">
              <mxPoint x="666" y="294" />
              <mxPoint x="666" y="200" />
            </Array>
          </mxGeometry>
        </mxCell>
        <mxCell id="O50cXXiidikAElt1FalA-85" value="&lt;font style=&quot;font-size: 30px;&quot; face=&quot;Times New Roman&quot;&gt;MaxPool&lt;/font&gt;" style="rounded=1;whiteSpace=wrap;html=1;fillColor=#D3C8D9;strokeColor=#9673a6;" parent="5ybYp6yLcuB_kvrWJm-r-21" vertex="1">
          <mxGeometry x="480" y="258.5" width="150" height="70" as="geometry" />
        </mxCell>
        <mxCell id="O50cXXiidikAElt1FalA-86" style="edgeStyle=orthogonalEdgeStyle;rounded=0;orthogonalLoop=1;jettySize=auto;html=1;exitX=0.5;exitY=0;exitDx=0;exitDy=0;entryX=0;entryY=0.5;entryDx=0;entryDy=0;" parent="5ybYp6yLcuB_kvrWJm-r-21" source="O50cXXiidikAElt1FalA-70" target="O50cXXiidikAElt1FalA-66" edge="1">
          <mxGeometry relative="1" as="geometry" />
        </mxCell>
        <mxCell id="O50cXXiidikAElt1FalA-87" style="edgeStyle=orthogonalEdgeStyle;rounded=0;orthogonalLoop=1;jettySize=auto;html=1;exitX=0.5;exitY=0;exitDx=0;exitDy=0;entryX=0;entryY=0.5;entryDx=0;entryDy=0;" parent="5ybYp6yLcuB_kvrWJm-r-21" source="O50cXXiidikAElt1FalA-70" target="O50cXXiidikAElt1FalA-79" edge="1">
          <mxGeometry relative="1" as="geometry" />
        </mxCell>
        <mxCell id="O50cXXiidikAElt1FalA-88" style="edgeStyle=orthogonalEdgeStyle;rounded=0;orthogonalLoop=1;jettySize=auto;html=1;exitX=0.5;exitY=0;exitDx=0;exitDy=0;entryX=0;entryY=0.5;entryDx=0;entryDy=0;" parent="5ybYp6yLcuB_kvrWJm-r-21" source="O50cXXiidikAElt1FalA-70" target="O50cXXiidikAElt1FalA-81" edge="1">
          <mxGeometry relative="1" as="geometry" />
        </mxCell>
        <mxCell id="O50cXXiidikAElt1FalA-89" value="&lt;span style=&quot;background-color: initial;&quot;&gt;&lt;font face=&quot;Times New Roman&quot; style=&quot;font-size: 25px;&quot;&gt;Concatenation&lt;/font&gt;&lt;/span&gt;" style="text;html=1;align=center;verticalAlign=middle;resizable=0;points=[];autosize=1;strokeColor=none;fillColor=none;flipV=0;" parent="5ybYp6yLcuB_kvrWJm-r-21" vertex="1">
          <mxGeometry x="663" y="161" width="170" height="40" as="geometry" />
        </mxCell>
      </root>
    </mxGraphModel>
  </diagram>
</mxfile>
